# xmcd
#
# Track frame offsets: 
#        202
#        16515
#        32792
#        51305
#        67040
#        78047
#        99925
#        116987
#        130787
#        142672
#        161335
#        184297
#
# Disc length: 2645 seconds
#
# Revision: 4
# Processed by: cddbd v1.5.2PL0 Copyright (c) Steve Scherf et al.
# Submitted via: ExactAudioCopyFreeDBPlugin 1.0
#
DISCID=920a530c
DTITLE=Roy Rogers and Norton Buffalo - R&B
DYEAR=1991
DGENRE=Blues
TTITLE0=So Much To Say And So Few Words
TTITLE1=Ain't No Bread In The Breadbox
TTITLE2=Is It Love?
TTITLE3=Strange Love
TTITLE4=Song For Jessica (Instrumental)
TTITLE5=Tender Heart
TTITLE6=Heaven Sittin' Down
TTITLE7=That's The Last Time
TTITLE8=When They Talk Like That
TTITLE9=You're Gone (With The Wind)
TTITLE10=Move On Way From Here
TTITLE11=Too Bad When You Touch It
EXTD=
EXTT0=
EXTT1=
EXTT2=
EXTT3=
EXTT4=
EXTT5=
EXTT6=
EXTT7=
EXTT8=
EXTT9=
EXTT10=
EXTT11=
PLAYORDER=
